<?xml version="1.0"?>
<svg version="1.1" id="Layer_1" xmlns="http://www.w3.org/2000/svg" x="0" y="0" viewBox="0 0 100 100" xml:space="preserve"><path d="M72.3 10.7c-13.6 0-20.9 8.6-22.3 13.8V89.3c.2-.3.5-.7.7-1 .1-.1.1-.2.2-.2.3-.3.6-.7.9-1.1 0 0 0-.1.1-.1.3-.3.6-.7 1-1.1l.2-.2 1.2-1.2.1-.1c.4-.4.8-.8 1.3-1.2l.1-.1c5-4.7 12-10.3 18.6-16.4 2.6-2.4 5.2-4.9 7.5-7.4l.2-.2c.6-.7 1.2-1.4 1.9-2.1l.3-.3c1.1-1.3 2.2-2.6 3.2-4 .2-.3.5-.6.7-1 .2-.2.3-.5.5-.7.3-.5.6-.9.9-1.4.2-.3.4-.6.5-.8.2-.3.4-.7.6-1 .2-.4.5-.8.7-1.2.1-.2.3-.5.4-.7.3-.5.5-1 .7-1.5l.3-.6c.2-.5.4-1 .6-1.6.1-.1.1-.3.2-.4.2-.5.4-1.1.5-1.6 0-.1.1-.3.1-.4.2-.6.3-1.2.4-1.8 0-.1.1-.3.1-.4l.3-1.8v-.3-2c0-12.6-10.2-22.7-22.7-22.7z" fill="#e15c64"/><path d="M27.7 10.7C15.2 10.7 5 20.8 5 33.4c0 .6 0 1.3.1 1.9v.3l.3 1.8c0 .1.1.3.1.4.1.6.3 1.2.4 1.7 0 .1.1.3.1.4.1.5.3 1 .5 1.5.1.1.1.3.2.4.2.5.4 1.1.6 1.6.1.2.2.5.3.7.2.5.5 1 .7 1.4.1.3.3.5.4.8.2.4.3.7.5 1 .3.5.5.9.8 1.4.1.2.3.4.4.6.4.7.8 1.3 1.3 2 0 .1.1.1.1.2.3.4.5.8.8 1.2 1 1.3 2 2.7 3.1 4 .1.1.2.2.2.3.6.7 1.3 1.5 1.9 2.2l.1.1c3 3.4 6.4 6.6 9.7 9.7 6.7 6 13.4 11.4 18 15.7l1.2 1.2c.1.1.2.1.2.2.4.3.7.7 1 1l.1.1c.3.3.6.7.9 1l.2.2c.3.3.6.6.8.9V24.5c-1.2-5.4-10.4-13.8-22.3-13.8z" fill="#c33837"/><g><path d="M84.2 56.6l-.3.3.3-.3z" fill="#f4e6c8"/><path d="M61.7 41c-.3-.8-1.1-1.3-2-1.2-.9.1-1.6.7-1.8 1.5l-5.7 22.8L50 53.2l-4.9-23.3c-.2-.9-1-1.6-1.9-1.6-.9 0-1.7.6-2 1.5l-6.3 22.9H12.7c1 1.3 2 2.7 3.1 4h20.6c.9 0 1.7-.6 1.9-1.5l4.6-16.4L50 72.7l.2.7c.2.9 1 1.6 1.9 1.6.9 0 1.7-.6 1.9-1.5l6.3-25.3 2.9 7.2c.3.8 1 1.2 1.9 1.2h19c1.1-1.3 2.2-2.6 3.2-4H66.5L61.7 41z" fill="#f4e6c8"/><path d="M87.4 52.6c.3-.3.5-.6.7-1-.3.4-.5.7-.7 1z" fill="#f4e6c8"/><path d="M16 56.9c-.1-.1-.2-.2-.2-.3.1.1.2.2.2.3z" fill="#f4e6c8"/><path d="M12.7 52.6c-.3-.4-.6-.8-.8-1.2.2.5.5.8.8 1.2z" fill="#f4e6c8"/></g><metadata xmlns:d="https://loading.io/stock/"><d:name>heartbeat</d:name><d:tags>pulse,wave,current,electric,heartbeat,web application</d:tags><d:license>pro</d:license><d:slug>8znrpr</d:slug></metadata></svg>