<svg version="1.1" viewBox="0.0 0.0 331.18372703412075 425.26509186351706" fill="none" stroke="none" stroke-linecap="square" stroke-miterlimit="10" xmlns:xlink="http://www.w3.org/1999/xlink" xmlns="http://www.w3.org/2000/svg"><clipPath id="p.0"><path d="m0 0l331.18372 0l0 425.2651l-331.18372 0l0 -425.2651z" clip-rule="nonzero"/></clipPath><g clip-path="url(#p.0)"><path fill="#000000" fill-opacity="0.0" d="m0 0l331.18372 0l0 425.2651l-331.18372 0z" fill-rule="evenodd"/><path fill="#a5251c" fill-opacity="0.8431" d="m80.96725 370.689l0 0c0 20.502594 -16.620636 37.12323 -37.12323 37.12323l0 0c-9.845692 0 -19.288128 -3.9111938 -26.250084 -10.873138c-6.961955 -6.961975 -10.873141 -16.404388 -10.873141 -26.250092l0 0c0 -20.502594 16.620636 -37.12323 37.123226 -37.12323l0 0c20.502594 0 37.12323 16.620636 37.12323 37.12323z" fill-rule="evenodd"/><path fill="#a51c30" fill-opacity="0.8431" d="m80.96725 262.45215l0 0c0 20.502594 -16.620636 37.12323 -37.12323 37.12323l0 0c-9.845692 0 -19.288128 -3.9111938 -26.250084 -10.873138c-6.961955 -6.961975 -10.873141 -16.404388 -10.873141 -26.250092l0 0c0 -20.502594 16.620636 -37.12323 37.123226 -37.12323l0 0c20.502594 0 37.12323 16.620636 37.12323 37.12323z" fill-rule="evenodd"/><path fill="#a51c38" fill-opacity="0.8431" d="m80.96725 154.22414l0 0c0 20.502594 -16.620636 37.12323 -37.12323 37.12323l0 0c-9.845692 0 -19.288128 -3.9111786 -26.250084 -10.873138c-6.961955 -6.96196 -10.873141 -16.404388 -10.873141 -26.250092l0 0c0 -20.502594 16.620636 -37.123222 37.123226 -37.123222l0 0c20.502594 0 37.12323 16.620628 37.12323 37.123222z" fill-rule="evenodd"/><path fill="#9b192c" fill-opacity="0.8431" d="m80.96725 45.99613l0 0c0 20.502594 -16.620636 37.12323 -37.12323 37.12323l0 0c-9.845692 0 -19.288128 -3.9111862 -26.250084 -10.873146c-6.961955 -6.961952 -10.873141 -16.404392 -10.873141 -26.250084l0 0c0 -20.502592 16.620636 -37.123226 37.123226 -37.123226l0 0c20.502594 0 37.12323 16.620634 37.12323 37.123226z" fill-rule="evenodd"/><path fill="#a51c30" fill-opacity="0.5896" d="m200.57951 316.57498l0 0c0 20.502594 -16.620636 37.12323 -37.12323 37.12323l0 0c-9.845688 0 -19.288132 -3.9111938 -26.250092 -10.873138c-6.9619446 -6.9619446 -10.873138 -16.404388 -10.873138 -26.250092l0 0c0 -20.502594 16.620636 -37.12323 37.12323 -37.12323l0 0c20.502594 0 37.12323 16.620636 37.12323 37.12323z" fill-rule="evenodd"/><path fill="#a51c30" fill-opacity="0.5896" d="m200.57951 208.33815l0 0c0 20.502594 -16.620636 37.12323 -37.12323 37.12323l0 0c-9.845688 0 -19.288132 -3.9111938 -26.250092 -10.873154c-6.9619446 -6.9619446 -10.873138 -16.404388 -10.873138 -26.250076l0 0c0 -20.502594 16.620636 -37.12323 37.12323 -37.12323l0 0c20.502594 0 37.12323 16.620636 37.12323 37.12323z" fill-rule="evenodd"/><path fill="#a51c1c" fill-opacity="0.5896" d="m200.57951 100.11014l0 0c0 20.502594 -16.620636 37.12323 -37.12323 37.12323l0 0c-9.845688 0 -19.288132 -3.9111938 -26.250092 -10.873146c-6.9619446 -6.961952 -10.873138 -16.404396 -10.873138 -26.250084l0 0c0 -20.502594 16.620636 -37.123226 37.12323 -37.123226l0 0c20.502594 0 37.12323 16.620632 37.12323 37.123226z" fill-rule="evenodd"/><path fill="#a51c30" fill-opacity="0.2697" d="m320.19177 208.33815l0 0c0 20.502594 -16.620636 37.12323 -37.12323 37.12323l0 0c-9.845673 0 -19.288116 -3.9111938 -26.250092 -10.873154c-6.9619446 -6.9619446 -10.873123 -16.404388 -10.873123 -26.250076l0 0c0 -20.502594 16.62062 -37.12323 37.123215 -37.12323l0 0c20.502594 0 37.12323 16.620636 37.12323 37.12323z" fill-rule="evenodd"/></g></svg>